# xmcd
#
# Track frame offsets:
#	150
#	16277
#	28695
#	45530
#	59670
#	77377
#	93122
#	111432
#	128122
#	140977
#	155790
#	170477
#
# Disc length: 2472 seconds
#
# Revision: 3
# Processed by: cddbd v1.5.2PL0 Copyright (c) Steve Scherf et al.
# Submitted via: EZCDAudioConverter 8.2.2.1
#
DISCID=a109a60c
DTITLE=CHITÃOZINHO and XORORÓ - NÃO DESLIGUE O RÁDIO [CD 599.020) COPACABANA
DYEAR=1986
DGENRE=SERTANEJO
TTITLE0=CORAÇÃO QUEBRADO (BY GILMAR SINISTRO)
TTITLE1=O DINHEIRO COMPRA TUDO (BY GILMAR SINISTRO)
TTITLE2=CARO AMIGO (PART. ESP. MARCIANO) (BY GILMAR SINISTRO)
TTITLE3=AMIGO DO PEITO (BY GILMAR SINISTRO)
TTITLE4=DEPOIS DE MIM (BY GILMAR SINISTRO)
TTITLE5=AMIGO AMANTE (BY GILMAR SINISTRO)
TTITLE6=NÃO DESLIGUE O RÁDIO (BY GILMAR SINISTRO)
TTITLE7=TERRA TOMBADA (BY GILMAR SINISTRO)
TTITLE8=SOB MEDIDA (BY GILMAR SINISTRO)
TTITLE9=QUEIXAS (BY GILMAR SINISTRO)
TTITLE10=ENCHENTE DA PAIXÃO (BY GILMAR SINISTRO)
TTITLE11=SE DEUS ME OUVISSE (BY GILMAR SINISTRO)
EXTD=
EXTT0=
EXTT1=
EXTT2=
EXTT3=
EXTT4=
EXTT5=
EXTT6=
EXTT7=
EXTT8=
EXTT9=
EXTT10=
EXTT11=
PLAYORDER=
